# xmcd
# 
# Track frame offsets:
#     150
#     15092
#     31530
#     43875
#     55087
#     67582
#     77495
#     96702
#     113582
#     123382
#     135362
#     148652
# 
# Disc length: 2259
# 
# Revision: 1
# Processed by: cddbd v1.5.2PL0 Copyright (c) Steve Scherf et al.
# Submitted via: fre:ac v1.0.31
# 
DISCID=8c08d10c
DTITLE=Ogawa Kaya - Open the Door
DYEAR=2012
DGENRE=Blues
TTITLE0=Guernica
TTITLE1=Redwind from San Diego
TTITLE2=Atlantic
TTITLE3=Harlem Beach
TTITLE4=Butterfly
TTITLE5=Juliette
TTITLE6=Song for Marcellus
TTITLE7=Blue
TTITLE8=Caribbean Cemetery
TTITLE9=Ocean Child
TTITLE10=Gemini
TTITLE11=Wail
EXTD=孤高のスライドギタリストOgawa Kayaの全キャリアの中から選りすぐられたベストトラック集。マスタリングエンジニアに巨匠、小鐵徹を迎え、すべてのマスターテープが見直された限りなくアナログの感触に近い渾身の作品となっている。 \n
EXTT0=
EXTT1=
EXTT2=
EXTT3=
EXTT4=
EXTT5=
EXTT6=
EXTT7=
EXTT8=
EXTT9=
EXTT10=
EXTT11=
PLAYORDER=
